<?xml version="1.0" standalone="no"?>
<!DOCTYPE svg PUBLIC "-//W3C//DTD SVG 1.1//EN" "http://www.w3.org/Graphics/SVG/1.1/DTD/svg11.dtd" >
<!--
2013-9-30: Created.
-->
<svg>
<metadata>
Created by iconfont
</metadata>
<defs>

<font id="iconfont" horiz-adv-x="1024" >
  <font-face
    font-family="iconfont"
    font-weight="500"
    font-stretch="normal"
    units-per-em="1024"
    ascent="896"
    descent="-128"
  />
    <missing-glyph />
    
    <glyph glyph-name="Ellipse" unicode="&#59043;" d="M480.976035 895.163399a223.721133 223.721133 0 1 0-216.819172-223.5817A220.165577 220.165577 0 0 0 480.976035 895.163399z m31.372549-511.093682c273.28976 0 371.590414-228.810458 371.590414-511.093682H140.061002c0 282.213508 98.300654 511.093682 372.287582 511.093682z"  horiz-adv-x="1024" />

    
    <glyph glyph-name="fork" unicode="&#59044;" d="M985.665701-127.897702a37.440959 37.440959 0 0 0-26.495105 10.945854L11.484682 832.473127A37.134066 37.134066 0 0 0 63.963403 885.054146l948.197403-949.527273a37.031768 37.031768 0 0 0 0-52.376423 36.622577 36.622577 0 0 0-26.495105-10.945855z m-948.197403 0a37.236364 37.236364 0 0 0-26.597402 63.322277L959.579787 884.951848a37.134066 37.134066 0 0 0 52.478721-52.581019L63.963403-116.747253a36.622577 36.622577 0 0 0-26.495105-10.945854z"  horiz-adv-x="1024" />

    
    <glyph glyph-name="Next" unicode="&#59045;" d="M536.227744-19.292012l385.109017 372.922022H1072.455489L562.551652-128h-53.135295L0 353.63001h151.118728z m0 542.564982l385.109017 372.72703H1072.455489L562.551652 414.564981h-53.135295L0 896h151.118728z"  horiz-adv-x="1072" />

    
    <glyph glyph-name="Progressbar" unicode="&#59046;" d="M463.238095 700.952381h97.52381v-828.952381H463.238095V700.952381z m48.761905 195.047619a195.047619 195.047619 0 1 0-195.047619-195.047619 195.047619 195.047619 0 0 0 195.047619 195.047619z"  horiz-adv-x="1024" />

    
    <glyph glyph-name="Next1" unicode="&#59047;" d="M889.6 384L540.16 751.744V896L992 409.28V358.4L540.16-128v144.256zM381.44 384L32 751.744V896l451.2-486.72V358.4L32-128v144.256z"  horiz-adv-x="1024" />

    
    <glyph glyph-name="Electricitysafety" unicode="&#59048;" d="M1003.064889 876.487111a66.844444 66.844444 0 0 1-94.378667 0l-160.540444-160.483555-22.186667-22.186667-20.992-20.992-127.772444-127.829333-220.842667-220.785778v-96.312889h92.615111L557.852444 336.782222l243.427556 243.484445 3.584 3.584 11.377778 11.377777L1003.064889 782.222222a66.730667 66.730667 0 0 1 0 94.264889zM486.001778 177.493333l-18.432-18.432H287.516444v183.751111l18.432 18.375112 217.144889 217.144888 125.155556 125.155556H0.455111V-128h831.317333V523.320889l-238.648888-238.933333z"  horiz-adv-x="1024" />

    
    <glyph glyph-name="Popup" unicode="&#59049;" d="M247.04 542.976V648.96H70.4V-57.6h706.304v176.576H247.04V542.72z m70.4 70.4h636.16v-70.4H317.952v-353.152H953.6V825.6H317.952v-211.904z m529.728-494.4V-128H0V719.552h247.168V896H1024v-776.896h-176.576z m-141.312 565.056a35.328 35.328 0 1 0 35.328 35.264 35.264 35.264 0 0 0-35.072-35.008z m141.312 0a35.328 35.328 0 1 0 35.264 35.264 35.328 35.328 0 0 0-35.008-35.008z"  horiz-adv-x="1024" />

    
    <glyph glyph-name="Newest" unicode="&#59050;" d="M773.575111 572.757333H322.161778v-540.444444h416.824889l160.711111-160.028445h25.088V32.426667h100.465778v540.444444h-251.676445z m-110.762667 62.577778h40.163556V895.488H-0.113778v-540.444444h261.176889V635.221333h401.749333z"  horiz-adv-x="1025" />

    
    <glyph glyph-name="suspend" unicode="&#59051;" d="M764.605658-127.395266v1023.395266h119.085995v-1023.395266h-119.085995z m-624.736292 1023.395266h118.620815v-1023.395266H139.869366v1023.395266z"  horiz-adv-x="1024" />

    
    <glyph glyph-name="place" unicode="&#59052;" d="M0-128h1024V576H0V-128zM0 896v-256h1024V896H0z m128-159.971556H64V800.028444H128v-64z m128 0H192V800.028444H256v-64z m645.12 0H320V800.028444H901.12v-64z"  horiz-adv-x="1024" />

    
    <glyph glyph-name="Thismonth" unicode="&#59053;" d="M993.052444 895.431111L0 418.816l358.4-157.866667zM390.769778 233.756444l179.484444-361.187555 455.111111 995.555555z"  horiz-adv-x="1025" />

    
    <glyph glyph-name="suspend1" unicode="&#59054;" d="M772.915746-128v1023.168675h122.780241v-1023.168675h-122.780241zM128.31948 895.168675h122.780241v-1023.168675H128.31948v1023.168675z"  horiz-adv-x="1024" />

    
    <glyph glyph-name="Theprevious" unicode="&#59055;" d="M535.078153 787.076699l-384.325699-372.55398H0L509.022174 896h52.577244L1070.156307 414.522719h-150.752454z m0-542.383133l-384.325699-372.600509H0l509.022174 481.52381h52.577244L1070.156307-127.906943h-150.752454z"  horiz-adv-x="1070" />

    
    <glyph glyph-name="Theprevious1" unicode="&#59056;" d="M134.36801 384.15995l349.330834 367.629116V896L32 409.432052V358.567948l451.698844-486.567948v144.210934z m508.00125 0L991.700094 751.789066V896L540.64105 409.432052V358.567948L991.700094-127.6801v144.210934z"  horiz-adv-x="1024" />

    
    <glyph glyph-name="Setup" unicode="&#59057;" d="M933.888 384A139.9808 139.9808 0 0 0 1024 514.8672a542.72 542.72 0 0 1-57.344 138.6496 139.9808 139.9808 0 0 0-184.832 185.1392A532.48 532.48 0 0 1 643.072 896a140.288 140.288 0 0 0-262.144 0 522.24 522.24 0 0 1-138.24-57.3952 140.1344 140.1344 0 0 0-185.344-185.1392A525.056 525.056 0 0 1 0 514.816a140.0832 140.0832 0 0 0 0-261.7344 525.1584 525.1584 0 0 1 57.344-138.6496 139.9808 139.9808 0 0 0 184.832-185.1392 532.48 532.48 0 0 1 138.752-57.344 140.288 140.288 0 0 0 262.144 0 522.24 522.24 0 0 1 138.24 57.344 140.1344 140.1344 0 0 0 185.344 185.1392A542.72 542.72 0 0 1 1024 253.0816 139.9808 139.9808 0 0 0 933.888 384zM512 243.4048A140.5952 140.5952 0 1 0 652.8 384 140.6464 140.6464 0 0 0 512 243.4048z"  horiz-adv-x="1024" />

    
    <glyph glyph-name="Callthepolice" unicode="&#59058;" d="M510.862138 599.132268a258.815423 258.815423 0 0 1-261.161698-256.469148v-315.126014h526.034775v315.126014a258.815423 258.815423 0 0 1-261.119038 256.469148h-3.754039z m-303.181344-153.57434a41.806348 41.806348 0 0 1-33.3171 49.229108l-123.158089 24.273278a42.659539 42.659539 0 0 1-50.082299-32.762526 41.67837 41.67837 0 0 1-0.383935-14.546903 42.232944 42.232944 0 0 1 33.701035-34.682205l123.158089-24.230618a42.659539 42.659539 0 0 1 50.082299 32.677206z m-28.197955 280.273171l78.408232-96.367898a43.086134 43.086134 0 0 1 59.723355-6.52691 41.294434 41.294434 0 0 1 6.654888 58.742185L245.818422 778.003715a43.086134 43.086134 0 0 1-59.723355 6.52691 41.294434 41.294434 0 0 1-15.485412-38.948159 40.654541 40.654541 0 0 1 8.873184-19.751367z m338.588761-36.473906a42.232944 42.232944 0 0 1 43.512729 40.782519L561.285713 853.340461a42.659539 42.659539 0 0 1-85.063121 2.004998l0.298617-123.371386a41.379753 41.379753 0 0 1 0.469255-7.294781 42.360922 42.360922 0 0 1 41.081136-35.364758z m196.959091-75.592703a43.128794 43.128794 0 0 1 60.064631 3.75404l82.930144 92.613859a41.251774 41.251774 0 0 1-3.796699 58.955483 43.086134 43.086134 0 0 1-60.064631-3.75404L711.191333 672.719973a41.166455 41.166455 0 0 1 3.839358-58.955483z m309.708253-151.142746a42.659539 42.659539 0 0 1-48.461236 35.023481l-124.181918-18.556899a41.849008 41.849008 0 0 1-35.663375-47.608046 42.403582 42.403582 0 0 1 48.461236-35.023481l124.139259 18.599559a41.891667 41.891667 0 0 1 35.706034 47.565386z m-156.091253-530.684665a60.064631 60.064631 0 0 0-60.619205-59.723355H204.097393a59.723355 59.723355 0 1 0 0 119.062774H808.028486a60.10729 60.10729 0 0 0 60.619205-59.723355z"  horiz-adv-x="1025" />

    
    <glyph glyph-name="Total" unicode="&#59059;" d="M1152 100.224V896H0v-796.032h540.032v-156.608H398.784V-128h354.432v71.872H611.968V100.48H1152z"  horiz-adv-x="1152" />

    
    <glyph glyph-name="Grade" unicode="&#59060;" d="M578.132107-14.280739V781.866941h195.04941V895.62382H250.817754v-113.756879h195.049411v-796.14768H250.817754v-113.719261H773.181517v113.719261H578.132107z"  horiz-adv-x="1024" />

    
    <glyph glyph-name="Grade1" unicode="&#59061;" d="M1011.869098-128v113.719261h-173.042871V781.866941h173.042871V895.62382H12.057482v-113.756879h173.042871v-796.14768h-173.042871v-113.719261H1011.869098zM315.559631 781.866941h392.807318v-796.14768H315.559631V781.866941z"  horiz-adv-x="1024" />

    
    <glyph glyph-name="Grade2" unicode="&#59062;" d="M1261.068748 895.62382h-139.52522L861.001153 117.307079a703.908306 703.908306 0 0 1-31.072481-127.600308h-3.98751a724.522979 724.522979 0 0 1-29.75585 126.283678L532.332551 895.62382h-142.15848l367.001359-1023.62382h134.898203zM95.925953-14.280739H0.037632v-113.719261h322.047831v113.719261H226.197141V781.866941h95.888322V895.62382H0.037632v-113.756879h95.888321v-796.14768z"  horiz-adv-x="1261" />

    
    <glyph glyph-name="Grade3" unicode="&#59063;" d="M0.451416-128h1113.493259v113.719261h-113.756879V781.866941h113.756879V895.62382H0.451416v-113.756879h113.756879v-796.14768H0.451416v-113.719261zM619.380625 781.866941h255.802506v-796.14768h-255.802506V781.866941z m-124.139451-796.14768h-255.802505V781.866941h255.802505v-796.14768z"  horiz-adv-x="1114" />

    
    <glyph glyph-name="Grade4" unicode="&#59064;" d="M972.028816 895.623806h-139.530345l-285.644085-785.605878q-19.185893-53.532403-31.111242-101.15856h-2.633358q-14.558707 54.849082-31.073622 99.841881L193.721101 895.623806H51.557398l391.467451-1023.661425h134.903159z"  horiz-adv-x="1024" />

    
    <glyph glyph-name="bofangsanjiaoxing" unicode="&#59065;" d="M803.84 403.968L213.056 760.96c-17.664 10.752-38.848 10.752-56.704 0.064C138.624 750.272 128 731.072 128 709.632v-714.176c0-21.44 10.624-40.704 28.352-51.392 8.896-5.376 18.624-8.064 28.352-8.064 9.728 0 19.52 2.688 28.352 8.064l590.72 356.992c17.728 10.752 28.288 30.016 28.288 51.456 0.064 21.504-10.496 40.768-28.224 51.456z m-614.272-399.68l-2.432 697.92L765.76 352.512 189.568 4.288z"  horiz-adv-x="1024" />

    


  </font>
</defs>
</svg>
